# xmcd
#
# Track frame offsets:
#	150
#	34421
#	64836
#	87661
#	108647
#	128351
#	155445
#	178455
#	209709
#	233759
#	252724
#	278167
#
# Disc length: 4097 seconds
#
# Revision: 2701377418
# Processed by: cddbd v1.5.2PL0 Copyright (c) Steve Scherf et al.
# Submitted via: EZCDAudioConverter 8.0.2.1
#
DISCID=ba0fff0c
DTITLE=Hà Nguyên - Vol 01. Trang Nhật Ký
DYEAR=2011
DGENRE=World Pop
TTITLE0=Lưu bút ngày xanh
TTITLE1=Hoa thương nhớ ai
TTITLE2=Sầu lẻ bóng
TTITLE3=Tình yêu trả lại trăng sao
TTITLE4=Lạnh trọn đêm mưa
TTITLE5=Chuyến đò không em
TTITLE6=Trang nhật ký
TTITLE7=Không bao giờ quên anh
TTITLE8=Xin thời gian qua mau
TTITLE9=Hai lối mộng
TTITLE10=Thu Sầu
TTITLE11=Nếu Hai Đứa Mình
EXTD=
EXTT0=
EXTT1=
EXTT2=
EXTT3=
EXTT4=
EXTT5=
EXTT6=
EXTT7=
EXTT8=
EXTT9=
EXTT10=
EXTT11=
PLAYORDER=
